<svg width="50" height="50" viewBox="0 0 50 50" fill="none" xmlns="http://www.w3.org/2000/svg">
<rect width="50" height="50" rx="25" fill="#FF0000"/>
<path d="M38.9066 18.1227C38.5801 16.8955 37.6144 15.9273 36.3857 15.5955C34.1641 15 25.2505 15 25.2505 15C25.2505 15 16.3414 15 14.1153 15.5955C12.8911 15.9227 11.9254 16.8909 11.5944 18.1227C11.0005 20.35 11.0005 25 11.0005 25C11.0005 25 11.0005 29.65 11.5944 31.8773C11.9209 33.1045 12.8866 34.0727 14.1153 34.4045C16.3414 35 25.2505 35 25.2505 35C25.2505 35 34.1641 35 36.3857 34.4045C37.6099 34.0773 38.5756 33.1091 38.9066 31.8773C39.5005 29.65 39.5005 25 39.5005 25C39.5005 25 39.5005 20.35 38.9066 18.1227Z" fill="white"/>
<path d="M22.4032 29.2864L29.807 25L22.4032 20.7136V29.2864Z" fill="#FF0000"/>
</svg>
