<svg width="50" height="50" viewBox="0 0 50 50" fill="none" xmlns="http://www.w3.org/2000/svg">
<circle cx="25" cy="25" r="25" fill="#00C300"/>
<path d="M35.7938 12.0051H14.8332C14.1971 12.0065 13.5676 12.1331 12.9805 12.3777C12.3934 12.6224 11.8602 12.9802 11.4114 13.4309C10.9626 13.8816 10.607 14.4163 10.3648 15.0045C10.1226 15.5926 9.99868 16.2227 10 16.8587V28.3784C9.998 29.0146 10.1215 29.645 10.3634 30.2335C10.6053 30.8219 10.9609 31.3569 11.4099 31.8077C11.8588 32.2585 12.3923 32.6164 12.9797 32.8608C13.5671 33.1052 14.1969 33.2314 14.8332 33.232H22.0573L24.5199 37.246C24.543 37.2852 24.5687 37.3228 24.5967 37.3586C24.669 37.4841 24.7731 37.5883 24.8985 37.6608C25.0239 37.7332 25.1661 37.7714 25.3109 37.7714C25.4558 37.7714 25.598 37.7332 25.7234 37.6608C25.8488 37.5883 25.9529 37.4841 26.0252 37.3586C26.0597 37.3238 26.089 37.2841 26.1122 37.2409L28.5697 33.2269H35.7938C37.0789 33.2242 38.3102 32.7115 39.2175 31.8014C40.1247 30.8913 40.6335 29.6583 40.6321 28.3733V16.8536C40.6335 15.5686 40.1247 14.3356 39.2175 13.4255C38.3102 12.5154 37.0789 12.0027 35.7938 12" fill="white"/>
<path d="M16.8048 20.4427C16.1996 20.4871 15.6315 20.7511 15.2074 21.1851V18.2053H13.3335V26.0182H15.2278V25.4038C15.3984 25.6635 15.6333 25.8744 15.9096 26.0162C16.186 26.158 16.4944 26.2257 16.8048 26.2128C17.1704 26.1971 17.5294 26.1088 17.8606 25.9531C18.1919 25.7974 18.4888 25.5773 18.7342 25.3057C18.9796 25.0342 19.1685 24.7165 19.2899 24.3712C19.4114 24.0259 19.4629 23.6599 19.4415 23.2945C19.4415 23.2945 19.3442 20.4376 16.8048 20.4376V20.4427ZM16.39 24.5591C16.1519 24.5591 15.9191 24.4884 15.7211 24.3559C15.5231 24.2235 15.3689 24.0353 15.278 23.8151C15.1871 23.595 15.1636 23.3528 15.2104 23.1193C15.2572 22.8857 15.3723 22.6714 15.5411 22.5033C15.7099 22.3352 15.9247 22.2211 16.1585 22.1752C16.3922 22.1294 16.6343 22.1539 16.854 22.2458C17.0738 22.3376 17.2614 22.4926 17.3929 22.6912C17.5245 22.8897 17.5942 23.1228 17.5932 23.361C17.5919 23.6792 17.4645 23.9839 17.239 24.2085C17.0135 24.433 16.7083 24.5591 16.39 24.5591" fill="#F37527"/>
<path d="M20.0454 18.031V19.8434C20.0454 19.8434 20.9004 19.8025 20.9004 21.3794V25.9873H22.7077V20.9698C22.7077 20.9698 22.7897 18.031 20.0454 18.031" fill="#F37527"/>
<path d="M27.1313 20.4731C27.1313 20.4731 24.0286 20.4731 24.0286 23.3659C24.0286 23.3659 23.9314 26.2176 27.1313 26.2176C27.1313 26.2176 30.3005 26.2176 30.3005 23.3659C30.3005 23.3659 30.4029 20.4731 27.1313 20.4731ZM27.1313 24.569C26.8931 24.569 26.6603 24.4983 26.4623 24.3659C26.2643 24.2335 26.1101 24.0453 26.0192 23.8251C25.9283 23.605 25.9048 23.3628 25.9516 23.1293C25.9984 22.8957 26.1135 22.6813 26.2823 22.5133C26.4511 22.3452 26.666 22.231 26.8997 22.1852C27.1334 22.1394 27.3755 22.1639 27.5953 22.2558C27.815 22.3476 28.0026 22.5026 28.1341 22.7012C28.2657 22.8997 28.3354 23.1328 28.3344 23.371C28.3344 23.5287 28.3033 23.685 28.2428 23.8306C28.1822 23.9763 28.0935 24.1086 27.9817 24.2199C27.8699 24.3313 27.7372 24.4194 27.5913 24.4793C27.4454 24.5392 27.289 24.5697 27.1313 24.569" fill="#F37527"/>
<path d="M35.471 20.6524V21.1644C35.2765 20.9386 35.0352 20.7579 34.7637 20.635C34.4922 20.5121 34.1972 20.4499 33.8992 20.4528C33.8992 20.4528 31.2471 20.335 31.2471 23.3199C31.2471 23.3199 31.2164 26.1051 33.807 26.1051C34.1164 26.1112 34.4236 26.0504 34.7072 25.9266C34.9909 25.8029 35.2445 25.6193 35.4505 25.3883V25.8286C35.4505 25.8286 35.5836 27.2007 34.2576 27.2007H33.807V28.8596H34.5494C34.9267 28.8635 35.3007 28.789 35.6477 28.6407C35.9947 28.4925 36.3071 28.2737 36.5651 27.9984C36.8231 27.7231 37.0211 27.3971 37.1465 27.0412C37.2719 26.6853 37.322 26.3073 37.2936 25.931V20.6524H35.471ZM34.3548 24.564C34.1167 24.564 33.8838 24.4933 33.6859 24.3609C33.4879 24.2285 33.3337 24.0402 33.2428 23.8201C33.1519 23.5999 33.1283 23.3578 33.1752 23.1242C33.222 22.8907 33.3371 22.6763 33.5059 22.5083C33.6747 22.3402 33.8895 22.226 34.1233 22.1802C34.357 22.1343 34.5991 22.1589 34.8188 22.2507C35.0386 22.3426 35.2261 22.4976 35.3577 22.6961C35.4893 22.8947 35.559 23.1278 35.558 23.366C35.5567 23.6842 35.4293 23.9889 35.2038 24.2134C34.9783 24.438 34.6731 24.564 34.3548 24.564" fill="#F37527"/>
</svg>
